<svg width="29" height="20" viewBox="0 0 29 20" fill="none" xmlns="http://www.w3.org/2000/svg">
<path fill-rule="evenodd" clip-rule="evenodd" d="M14.3474 15.9993C12.8545 17.2469 10.9179 18 8.80176 18C4.07997 18 0.252197 14.2504 0.252197 9.625C0.252197 4.99961 4.07997 1.25 8.80176 1.25C10.9179 1.25 12.8545 2.00312 14.3474 3.25068C15.8404 2.00312 17.7769 1.25 19.8931 1.25C24.6149 1.25 28.4427 4.99961 28.4427 9.625C28.4427 14.2504 24.6149 18 19.8931 18C17.7769 18 15.8404 17.2469 14.3474 15.9993Z" fill="#ED0006"/>
<path fill-rule="evenodd" clip-rule="evenodd" d="M14.3474 15.9993C16.1857 14.4632 17.3513 12.1774 17.3513 9.625C17.3513 7.07256 16.1857 4.7868 14.3474 3.25067C15.8403 2.00312 17.7769 1.25 19.8931 1.25C24.6149 1.25 28.4426 4.99961 28.4426 9.625C28.4426 14.2504 24.6149 18 19.8931 18C17.7769 18 15.8403 17.2469 14.3474 15.9993Z" fill="#F9A000"/>
<path fill-rule="evenodd" clip-rule="evenodd" d="M14.3473 15.9985C16.1856 14.4624 17.3512 12.1767 17.3512 9.62427C17.3512 7.07186 16.1856 4.78613 14.3473 3.25C12.5091 4.78613 11.3435 7.07186 11.3435 9.62427C11.3435 12.1767 12.5091 14.4624 14.3473 15.9985Z" fill="#FF5E00"/>
</svg>
